<?xml version="1.0" encoding="UTF-8"?>
<svg width="56px" height="39px" viewBox="0 0 56 39" version="1.1" xmlns="http://www.w3.org/2000/svg" xmlns:xlink="http://www.w3.org/1999/xlink">
    <!-- Generator: Sketch 49.3 (51167) - http://www.bohemiancoding.com/sketch -->
    <title>analysis@1x</title>
    <desc>Created with Sketch.</desc>
    <defs></defs>
    <g id="Page-1" stroke="none" stroke-width="1" fill="none" fill-rule="evenodd">
        <g id="analysis">
            <g id="svgid21" transform="translate(31.000000, 14.000000)" fill-rule="nonzero">
                <circle id="MTBteHkyNzUxMDAwMDAwMDAwMHh6czU5OA" fill="#67DDE0" cx="10.5" cy="10.5" r="10"></circle>
                <path d="M23.5,24.5 C23.23,24.5 22.972,24.388 22.787,24.193 C22.687,24.095 16.819,18.236 16.819,18.236 L17.219,17.883 C17.452,17.678 17.677,17.453 17.882,17.219 L18.235,16.819 L24.205,22.797 C24.387,22.97 24.499,23.23 24.499,23.497 C24.499,23.764 24.387,24.027 24.192,24.211 C24.027,24.387 23.768,24.499 23.499,24.499 L23.5,24.5 Z" id="Shape" fill="#BF9171"></path>
                <circle id="Oval" fill="#FFFFFF" opacity="0.4" cx="10.5" cy="10.5" r="7.5"></circle>
                <path d="M4.645,14.837 C4.482,14.837 4.323,14.757 4.227,14.611 C4.067,14.369 3.921,14.116 3.79,13.854 C3.666,13.607 3.767,13.307 4.014,13.184 C4.262,13.059 4.561,13.161 4.684,13.407 C4.798,13.634 4.924,13.853 5.064,14.063 C5.214,14.293 5.15,14.603 4.919,14.755 C4.833,14.812 4.739,14.838 4.644,14.838 L4.645,14.837 Z M3.5,11 C3.224,11 3,10.776 3,10.5 C3,6.364 6.364,3 10.5,3 C10.776,3 11,3.224 11,3.5 C11,3.776 10.776,4 10.5,4 C6.916,4 4,6.916 4,10.5 C4,10.776 3.776,11 3.5,11 Z" id="Shape" fill="#FFFFFF" opacity="0.8"></path>
                <path d="M24.56,22.44 C24.253,22.132 20.882,18.76 18.9,16.78 C20.214,15.027 21,12.858 21,10.5 C21,4.7 16.3,0 10.5,0 C4.7,0 0,4.7 0,10.5 C0,16.3 4.7,21 10.5,21 C12.857,21 15.026,20.213 16.78,18.9 C18.76,20.882 22.132,24.254 22.44,24.56 C23.025,25.146 23.974,25.146 24.56,24.56 C25.146,23.976 25.146,23.025 24.56,22.44 Z M10.5,20 C5.253,20 1,15.747 1,10.5 C1,5.253 5.253,1 10.5,1 C15.747,1 20,5.253 20,10.5 C20,15.747 15.747,20 10.5,20 Z M23.854,23.854 C23.659,24.05 23.342,24.05 23.147,23.854 L17.554,18.262 C17.801,18.037 18.036,17.802 18.261,17.555 L23.855,23.147 C24.05,23.343 24.05,23.657 23.855,23.854 L23.854,23.854 Z M11,10 L14,10 L14,11 L11,11 L11,14 L10,14 L10,11 L7,11 L7,10 L10,10 L10,7 L11,7 L11,10 Z" id="Shape" fill="#4D5152"></path>
            </g>
            <g id="svgid2" transform="translate(17.000000, 0.000000)">
                <path d="M2,27.5 C1.752,27.497 0.5,27.41 0.5,26 L0.5,2 C0.503,1.752 0.588,0.5 2,0.5 L18,0.5 C18.248,0.503 19.5,0.588 19.5,2 L19.5,26 C19.497,26.248 19.41,27.5 18,27.5 L2,27.5 Z" id="Shape" fill="#FFFFFF"></path>
                <path d="M18,0 L2,0 C0,0 0,2 0,2 L0,26 C0,28 2,28 2,28 L18,28 C20,28 20,26 20,26 L20,2 C20,0 18,0 18,0 Z M19,25.988 C18.988,26.45 18.806,27 18,27 L2.012,27 C1.55,26.988 1,26.806 1,26 L1,2.012 C1.012,1.55 1.195,1 2,1 L17.992,1 C18.452,1.013 19,1.197 19,2 L19,25.988 Z M3,8 L10,8 L10,7 L3,7 L3,8 Z M3,13 L10,13 L10,12 L3,12 L3,13 Z M3,18 L10,18 L10,17 L3,17 L3,18 Z M3,23 L10,23 L10,22 L3,22 L3,23 Z M7,15 L3,15 L3,16 L7,16 L7,15 Z M7,10 L3,10 L3,11 L7,11 L7,10 Z M7,5 L3,5 L3,6 L7,6 L7,5 Z M7,20 L3,20 L3,21 L7,21 L7,20 Z" id="Shape" fill="#4D5152"></path>
                <path d="M13.5,7.793 L11.854,6.147 L11.147,6.854 L13.501,9.208 L17.856,4.854 L17.149,4.147 L13.5,7.793 Z M13.5,12.793 L11.854,11.147 L11.147,11.854 L13.501,14.208 L17.856,9.854 L17.149,9.147 L13.501,12.793 L13.5,12.793 Z M13.5,17.793 L11.854,16.147 L11.147,16.854 L13.501,19.208 L17.856,14.854 L17.149,14.147 L13.501,17.793 L13.5,17.793 Z M13.5,22.793 L11.854,21.147 L11.147,21.854 L13.501,24.208 L17.856,19.854 L17.149,19.147 L13.501,22.793 L13.5,22.793 Z" id="MTBteHkzNzAxMDAwMDAwMDAwMHh6czE3OQ" fill="#75EA9C"></path>
            </g>
            <g id="svgid15" transform="translate(0.000000, 17.000000)">
                <polygon id="MTBteHk5ODEwMDAwMDAwMDAweHpzNjk1" fill="#EF6565" points="19.5 16.5 24.5 16.5 24.5 21.5 19.5 21.5"></polygon>
                <polygon id="Shape" fill="#67DDE0" points="14.5 6.5 19.5 6.5 19.5 21.5 14.5 21.5"></polygon>
                <polygon id="Shape" fill="#FFD878" points="8.5 2.5 14.5 2.5 14.5 21.5 8.5 21.5"></polygon>
                <polygon id="Shape" fill="#E88C77" points="3.5 9.5 8.5 9.5 8.5 21.5 3.5 21.5"></polygon>
                <path d="M25,21 L25,16 L20,16 L20,6 L15,6 L15,2 L8,2 L8,9 L3,9 L3,21 L1,21 L1,0 L0,0 L0,22 L27,22 L27,21 L25,21 Z M4,10 L8,10 L8,21 L4,21 L4,10 Z M14,21 L9,21 L9,3 L14,3 L14,21 Z M19,21 L15,21 L15,7 L19,7 L19,21 Z M24,21 L20,21 L20,17 L24,17 L24,21 Z" id="Shape" fill="#4D5152"></path>
            </g>
        </g>
    </g>
</svg>