<?xml version="1.0" encoding="UTF-8"?>
<svg width="43px" height="28px" viewBox="0 0 43 28" version="1.1" xmlns="http://www.w3.org/2000/svg" xmlns:xlink="http://www.w3.org/1999/xlink">
    <!-- Generator: Sketch 49.3 (51167) - http://www.bohemiancoding.com/sketch -->
    <title>execution</title>
    <desc>Created with Sketch.</desc>
    <defs></defs>
    <g id="Page-1" stroke="none" stroke-width="1" fill="none" fill-rule="evenodd">
        <g id="execution" fill-rule="nonzero">
            <g id="svgid5">
                <path d="M5.5,19.5 C2.743,19.5 0.5,17.257 0.5,14.5 C0.5,12.196 2.067,10.2 4.31,9.645 L4.787,9.529 L4.682,9.046 C4.562,8.522 4.5,8 4.5,7.5 C4.5,3.64 7.64,0.5 11.5,0.5 C14.907,0.5 17.8,2.937 18.382,6.294 L18.482,6.852 L19.028,6.69 C19.46,6.563 19.85,6.5 20.22,6.5 C22.558,6.5 24.478,8.41 24.5,10.755 L24.505,11.155 L25.147,11.295 C25.711,11.415 26.197,11.517 26.499,11.595 C28.265,12.052 29.499,13.649 29.499,15.48 C29.499,17.697 27.697,19.5 25.479,19.5 L5.5,19.5 Z" id="MTBteHkyMjAxMDAwMDAwMDAwMHh6czc4OQ" fill="#67DDE0"></path>
                <path d="M26.62,11.107 C26.27,11.017 25.67,10.887 24.997,10.751 C24.98,8.13 22.845,6 20.22,6 C19.752,6 19.307,6.08 18.88,6.207 C18.267,2.687 15.195,0 11.5,0 C7.364,0 4,3.364 4,7.5 C4,8.072 4.07,8.628 4.192,9.164 C1.792,9.754 0,11.92 0,14.5 C0,17.532 2.467,20 5.5,20 L25.48,20 C27.974,20 30,17.974 30,15.48 C30,13.422 28.61,11.624 26.62,11.107 M25.48,19 L5.5,19 C3.014,19 1,16.985 1,14.5 C1,12.015 3.014,10 5.5,10 C5.178,9.23 5,8.386 5,7.5 C5,3.91 7.91,1 11.5,1 C15.09,1 18,3.91 18,7.5 L17.987,7.742 C18.614,7.282 19.381,7 20.219,7 C22.306,7 23.999,8.693 23.999,10.78 C23.999,11.047 23.971,11.306 23.919,11.556 C24.909,11.75 25.889,11.952 26.366,12.076 C27.882,12.47 29,13.846 29,15.48 C29,17.425 27.425,19 25.48,19" id="Shape" fill="#4D5152"></path>
                <path d="M7.5,18 L5.5,18 C2.73,18 2,15.71 2,14.5 C2,14.225 2.223,14.002 2.498,14 C2.774,14 2.998,14.224 2.998,14.498 C3.003,14.754 3.09,17 5.5,17 L7.5,17 C7.776,17 8,17.224 8,17.5 C8,17.776 7.776,18 7.5,18 Z M7,7.5 C7,3.292 11.34,3.01 11.526,3 C11.801,2.985 12.013,2.75 11.999,2.475 C11.983,2.199 11.749,1.98 11.474,2 C11.42,2.003 6,2.334 6,7.5 C6,7.776 6.224,8 6.5,8 C6.776,8 7,7.776 7,7.5 Z" id="Shape" fill="#FFFFFF" opacity="0.8"></path>
            </g>
            <g id="svgid8" transform="translate(17.000000, 2.000000)">
                <path d="M25.5,6 C25.5,9.04 23.04,11.5 20,11.5 C19.63,11.5 19.27,11.46 18.92,11.39 L18.78,11.36 C18.48,11.3 18.18,11.2 17.9,11.08 C17.83,11.05 17.75,11.02 17.68,10.98 C17.64,10.97 17.61,10.95 17.57,10.93 L10.93,17.57 C10.95,17.61 10.97,17.64 10.98,17.68 C11.02,17.75 11.05,17.83 11.08,17.9 C11.19,18.15 11.27,18.41 11.34,18.68 C11.36,18.76 11.38,18.84 11.39,18.92 C11.46,19.27 11.5,19.63 11.5,20 C11.5,23.04 9.04,25.5 6,25.5 C5.81,25.5 5.63,25.49 5.45,25.47 C5.34,25.46 5.23,25.45 5.12,25.42 C5.02,25.41 4.93,25.39 4.83,25.37 C4.71,25.348 4.58,25.32 4.46,25.28 L7.87,21.87 L7.08,18.92 L4.13,18.13 L0.72,21.54 C0.68,21.42 0.65,21.29 0.63,21.17 C0.6,21.06 0.58,20.95 0.57,20.84 C0.55,20.75 0.54,20.65 0.53,20.55 C0.51,20.37 0.5,20.19 0.5,20 C0.5,16.96 2.96,14.5 6,14.5 C6.57,14.5 7.12,14.59 7.64,14.75 C7.79,14.79 7.93,14.85 8.07,14.9 C8.19,14.95 8.31,15.01 8.43,15.07 L15.07,8.43 C14.94,8.17 14.83,7.91 14.75,7.64 C14.69,7.47 14.65,7.29 14.61,7.11 C14.54,6.75 14.5,6.38 14.5,6 C14.5,2.96 16.96,0.5 20,0.5 C20.3,0.5 20.6,0.52 20.88,0.58 C20.98,0.59 21.07,0.61 21.17,0.63 C21.29,0.65 21.42,0.68 21.54,0.72 L18.13,4.13 L18.92,7.08 L21.87,7.87 L25.28,4.46 C25.32,4.58 25.35,4.71 25.37,4.83 C25.39,4.9 25.41,4.98 25.42,5.06 C25.47,5.36 25.5,5.68 25.5,6 Z" id="MTBteHk4NDYxMDAwMDAwMDAwMHh6czI5Mg" fill="#AAAAAA"></path>
                <path d="M11.5,20 C11.5,23.037 9.038,25.5 6,25.5 C5.465,25.5 4.95,25.42 4.46,25.277 L7.87,21.867 L7.08,18.919 L4.13,18.129 L0.722,21.537 C0.58,21.048 0.5,20.534 0.5,20 C0.5,16.963 2.962,14.5 6,14.5 C6.763,14.5 8.167,15.473 8.528,15.685 C9.283,16.129 9.912,16.765 10.346,17.527 C10.549,17.882 11.5,19.257 11.5,20 Z M25.277,4.462 L21.869,7.872 L18.919,7.082 L18.129,4.132 L21.539,0.722 C21.05,0.58 20.534,0.5 20,0.5 C16.963,0.5 14.5,2.963 14.5,6 C14.5,6.758 15.49,8.142 15.7,8.512 C16.135,9.272 16.764,9.909 17.52,10.354 C17.87,10.56 19.256,11.5 20,11.5 C23.037,11.5 25.5,9.037 25.5,6 C25.5,5.466 25.42,4.95 25.277,4.462 Z" id="Shape" fill="#FFFFFF" opacity="0.4"></path>
                <path d="M25.856,4.72 C25.726,4.12 25.011,4.004 24.593,4.423 C24.199,4.813 21.713,7.303 21.713,7.303 L19.333,6.666 L19.335,6.673 L19.325,6.663 L19.333,6.666 L18.695,4.288 C18.695,4.288 21.185,1.8 21.575,1.406 C21.995,0.989 21.879,0.276 21.28,0.143 C20.868,0.053 20.442,0.005 20.004,0.005 C16.691,0.005 14.004,2.691 14.004,6.005 C14.004,6.829 14.17,7.615 14.47,8.328 L8.327,14.471 C7.613,14.171 6.827,14.006 6.004,14.006 C2.69,14.006 0.004,16.693 0.004,20.006 C0.004,20.444 0.052,20.87 0.142,21.282 C0.274,21.882 0.987,21.998 1.406,21.579 L4.286,18.699 L6.664,19.336 L6.662,19.329 L6.672,19.339 L6.664,19.336 L7.302,21.714 C7.302,21.714 4.814,24.202 4.422,24.596 C4.002,25.013 4.119,25.726 4.718,25.859 C5.128,25.949 5.556,25.999 5.994,25.999 C9.307,25.999 11.994,23.309 11.994,19.999 C11.994,19.196 11.834,18.435 11.55,17.736 L17.732,11.556 C18.43,11.838 19.192,11.998 19.994,11.998 C23.307,11.998 25.994,9.311 25.994,5.998 C25.994,5.558 25.947,5.133 25.856,4.721 M19.996,10.996 C19.098,10.996 18.266,10.742 17.541,10.329 L10.33,17.54 C10.743,18.27 10.997,19.098 10.997,19.995 C10.997,22.755 8.757,24.995 5.997,24.995 C5.82,24.995 5.647,24.985 5.474,24.967 L8.43,22.011 L7.492,18.511 L3.99,17.573 L1.035,20.529 C1.017,20.357 1.007,20.183 1.007,20.007 C1.007,17.245 3.247,15.007 6.007,15.007 C6.927,15.007 7.775,15.272 8.514,15.703 L15.704,8.513 C15.271,7.775 15.007,6.926 15.007,6.007 C15.007,3.247 17.247,1.007 20.007,1.007 C20.184,1.007 20.359,1.017 20.529,1.035 L17.57,3.99 L18.51,7.49 L22.01,8.43 L24.967,5.474 C24.985,5.644 24.994,5.819 24.994,5.996 C24.994,8.756 22.757,10.996 19.994,10.996" id="Shape" fill="#4D5152"></path>
            </g>
        </g>
    </g>
</svg>