<?xml version="1.0" encoding="UTF-8"?>
<svg width="57px" height="37px" viewBox="0 0 57 37" version="1.1" xmlns="http://www.w3.org/2000/svg" xmlns:xlink="http://www.w3.org/1999/xlink">
    <!-- Generator: Sketch 49.3 (51167) - http://www.bohemiancoding.com/sketch -->
    <title>Groupgears</title>
    <desc>Created with Sketch.</desc>
    <defs></defs>
    <g id="Page-1" stroke="none" stroke-width="1" fill="none" fill-rule="evenodd">
        <g id="Group" fill-rule="nonzero">
            <g id="svgid15" transform="translate(31.000000, 0.000000)">
                <path d="M25.5,14.4 L25.5,11.6 L22.7,11.1 C22.4,9.8 21.9,8.5 21.2,7.4 L22.8,5.1 L20.8,3.1 L18.5,4.7 C17.4,3.9 16.1,3.4 14.9,3.2 L14.4,0.4 L11.6,0.4 L11.1,3.2 C9.8,3.5 8.5,4 7.4,4.7 L5.2,3.2 L3.2,5.2 L4.8,7.5 C4,8.6 3.5,9.8 3.3,11.2 L0.5,11.7 L0.5,14.5 L3.3,15 C3.6,16.3 4.1,17.6 4.8,18.6 L3.2,20.9 L5.2,22.9 L7.5,21.3 C8.6,22.1 9.8,22.6 11.2,22.8 L11.7,25.6 L14.5,25.6 L15,22.8 C16.3,22.5 17.5,22 18.6,21.3 L20.9,22.9 L22.9,20.9 L21.3,18.6 C22.1,17.5 22.6,16.3 22.8,15 L25.5,14.4 Z M13,15.5 C11.6,15.5 10.5,14.4 10.5,13 C10.5,11.6 11.6,10.5 13,10.5 C14.4,10.5 15.5,11.6 15.5,13 C15.5,14.4 14.4,15.5 13,15.5 Z" id="Shape" fill="#FF7272"></path>
                <path d="M25.5,14.4 L25.5,11.6 L22.7,11.1 C22.4,9.8 21.9,8.5 21.2,7.4 L22.8,5.1 L20.8,3.1 L18.5,4.7 C17.4,3.9 16.1,3.4 14.9,3.2 L14.4,0.4 L11.6,0.4 L11.1,3.2 C9.8,3.5 8.5,4 7.4,4.7 L5.2,3.2 L3.2,5.2 L4.8,7.5 C4,8.6 3.5,9.8 3.3,11.2 L0.5,11.7 L0.5,14.5 L3.3,15 C3.6,16.3 4.1,17.6 4.8,18.6 L3.2,20.9 L5.2,22.9 L7.5,21.3 C8.6,22.1 9.8,22.6 11.2,22.8 L11.7,25.6 L14.5,25.6 L15,22.8 C16.3,22.5 17.5,22 18.6,21.3 L20.9,22.9 L22.9,20.9 L21.3,18.6 C22.1,17.5 22.6,16.3 22.8,15 L25.5,14.4 Z M13,15.5 C11.6,15.5 10.5,14.4 10.5,13 C10.5,11.6 11.6,10.5 13,10.5 C14.4,10.5 15.5,11.6 15.5,13 C15.5,14.4 14.4,15.5 13,15.5 Z" id="Shape" fill="#FF7272"></path>
                <path d="M13,8 C10.2,8 8,10.2 8,13 C8,15.8 10.2,18 13,18 C15.8,18 18,15.8 18,13 C18,10.2 15.8,8 13,8 Z M13,15.5 C11.6,15.5 10.5,14.4 10.5,13 C10.5,11.6 11.6,10.5 13,10.5 C14.4,10.5 15.5,11.6 15.5,13 C15.5,14.4 14.4,15.5 13,15.5 Z" id="Shape" fill="#000000" opacity="0.559476902"></path>
                <path d="M25.2,11 L23.2,10.7 C22.9,9.5 22.5,8.4 21.9,7.5 L23,5.8 C23.3,5.4 23.2,4.9 22.9,4.5 L21.5,3.1 C21.3,2.9 21,2.8 20.8,2.8 C20.6,2.8 20.4,2.9 20.2,3 L18.6,4.2 C17.6,3.6 16.5,3.1 15.4,2.9 L15.1,0.9 C14.9,0.3 14.5,1.77635684e-15 14,1.77635684e-15 L12,1.77635684e-15 C11.5,1.77635684e-15 11.1,0.3 11,0.8 L10.7,2.8 C9.5,3.1 8.4,3.5 7.5,4.1 L5.8,3 C5.6,2.9 5.4,2.8 5.2,2.8 C5,2.8 4.7,2.9 4.5,3.1 L3.1,4.5 C2.8,4.9 2.7,5.4 3,5.8 L4.2,7.4 C3.6,8.4 3.1,9.5 2.9,10.6 L0.9,10.9 C0.3,11.1 0,11.5 0,12 L0,14 C0,14.5 0.3,14.9 0.8,15 L2.8,15.3 C3.1,16.5 3.5,17.6 4.1,18.5 L3,20.2 C2.7,20.6 2.8,21.1 3.1,21.5 L4.5,22.9 C4.7,23.1 4.9,23.2 5.2,23.2 C5.4,23.2 5.6,23.1 5.8,23 L7.4,21.8 C8.4,22.4 9.5,22.9 10.6,23.1 L10.9,25.1 C11,25.6 11.4,25.9 11.9,25.9 L13.9,25.9 C14.4,25.9 14.8,25.5 14.9,25.1 L15.2,23.1 C16.4,22.8 17.5,22.4 18.4,21.8 L20,23 C20.2,23.1 20.4,23.2 20.6,23.2 C20.9,23.2 21.1,23.1 21.3,22.9 L22.7,21.5 C23.1,21.1 23.1,20.6 22.8,20.2 L21.6,18.6 C22.2,17.6 22.7,16.5 22.9,15.4 L24.9,15.1 C25.4,15 25.7,14.6 25.7,14.1 L25.7,12.1 C26,11.5 25.6,11.1 25.2,11 Z M25,14 L22.3,14.5 C22.1,16 21.5,17.4 20.6,18.6 L22.2,20.8 L20.8,22.2 L18.6,20.6 C17.4,21.5 16,22.1 14.5,22.3 L14,25 L12,25 L11.6,22.3 C10.1,22.1 8.7,21.5 7.5,20.6 L5.3,22.2 L3.9,20.8 L5.5,18.6 C4.5,17.4 4,16 3.7,14.5 L1,14 L1,12 L3.7,11.6 C4,10 4.5,8.6 5.4,7.5 L3.8,5.2 L5.2,3.8 L7.4,5.4 C8.6,4.5 10,4 11.6,3.7 L12,1 L14,1 L14.5,3.7 C16,4 17.3,4.5 18.5,5.4 L20.7,3.8 L22.1,5.2 L20.5,7.4 C21.4,8.6 22,10 22.2,11.5 L25,12 L25,14 Z M13,10 C11.3,10 10,11.3 10,13 C10,14.7 11.3,16 13,16 C14.7,16 16,14.7 16,13 C16,11.3 14.7,10 13,10 Z M13,15 C11.9,15 11,14.1 11,13 C11,11.9 11.9,11 13,11 C14.1,11 15,11.9 15,13 C15,14.1 14.1,15 13,15 Z" id="Shape" fill="#4D5152"></path>
            </g>
            <g id="svgid15" transform="translate(0.000000, 6.000000)">
                <path d="M25.5,14.4 L25.5,11.6 L22.7,11.1 C22.4,9.8 21.9,8.5 21.2,7.4 L22.8,5.1 L20.8,3.1 L18.5,4.7 C17.4,3.9 16.1,3.4 14.9,3.2 L14.4,0.4 L11.6,0.4 L11.1,3.2 C9.8,3.5 8.5,4 7.4,4.7 L5.2,3.2 L3.2,5.2 L4.8,7.5 C4,8.6 3.5,9.8 3.3,11.2 L0.5,11.7 L0.5,14.5 L3.3,15 C3.6,16.3 4.1,17.6 4.8,18.6 L3.2,20.9 L5.2,22.9 L7.5,21.3 C8.6,22.1 9.8,22.6 11.2,22.8 L11.7,25.6 L14.5,25.6 L15,22.8 C16.3,22.5 17.5,22 18.6,21.3 L20.9,22.9 L22.9,20.9 L21.3,18.6 C22.1,17.5 22.6,16.3 22.8,15 L25.5,14.4 Z M13,15.5 C11.6,15.5 10.5,14.4 10.5,13 C10.5,11.6 11.6,10.5 13,10.5 C14.4,10.5 15.5,11.6 15.5,13 C15.5,14.4 14.4,15.5 13,15.5 Z" id="Shape" fill="#FF7272"></path>
                <path d="M25.5,14.4 L25.5,11.6 L22.7,11.1 C22.4,9.8 21.9,8.5 21.2,7.4 L22.8,5.1 L20.8,3.1 L18.5,4.7 C17.4,3.9 16.1,3.4 14.9,3.2 L14.4,0.4 L11.6,0.4 L11.1,3.2 C9.8,3.5 8.5,4 7.4,4.7 L5.2,3.2 L3.2,5.2 L4.8,7.5 C4,8.6 3.5,9.8 3.3,11.2 L0.5,11.7 L0.5,14.5 L3.3,15 C3.6,16.3 4.1,17.6 4.8,18.6 L3.2,20.9 L5.2,22.9 L7.5,21.3 C8.6,22.1 9.8,22.6 11.2,22.8 L11.7,25.6 L14.5,25.6 L15,22.8 C16.3,22.5 17.5,22 18.6,21.3 L20.9,22.9 L22.9,20.9 L21.3,18.6 C22.1,17.5 22.6,16.3 22.8,15 L25.5,14.4 Z M13,15.5 C11.6,15.5 10.5,14.4 10.5,13 C10.5,11.6 11.6,10.5 13,10.5 C14.4,10.5 15.5,11.6 15.5,13 C15.5,14.4 14.4,15.5 13,15.5 Z" id="Shape" fill="#729AFF"></path>
                <path d="M13,8 C10.2,8 8,10.2 8,13 C8,15.8 10.2,18 13,18 C15.8,18 18,15.8 18,13 C18,10.2 15.8,8 13,8 Z M13,15.5 C11.6,15.5 10.5,14.4 10.5,13 C10.5,11.6 11.6,10.5 13,10.5 C14.4,10.5 15.5,11.6 15.5,13 C15.5,14.4 14.4,15.5 13,15.5 Z" id="Shape" fill="#000000" opacity="0.559476902"></path>
                <path d="M25.2,11 L23.2,10.7 C22.9,9.5 22.5,8.4 21.9,7.5 L23,5.8 C23.3,5.4 23.2,4.9 22.9,4.5 L21.5,3.1 C21.3,2.9 21,2.8 20.8,2.8 C20.6,2.8 20.4,2.9 20.2,3 L18.6,4.2 C17.6,3.6 16.5,3.1 15.4,2.9 L15.1,0.9 C14.9,0.3 14.5,1.77635684e-15 14,1.77635684e-15 L12,1.77635684e-15 C11.5,1.77635684e-15 11.1,0.3 11,0.8 L10.7,2.8 C9.5,3.1 8.4,3.5 7.5,4.1 L5.8,3 C5.6,2.9 5.4,2.8 5.2,2.8 C5,2.8 4.7,2.9 4.5,3.1 L3.1,4.5 C2.8,4.9 2.7,5.4 3,5.8 L4.2,7.4 C3.6,8.4 3.1,9.5 2.9,10.6 L0.9,10.9 C0.3,11.1 0,11.5 0,12 L0,14 C0,14.5 0.3,14.9 0.8,15 L2.8,15.3 C3.1,16.5 3.5,17.6 4.1,18.5 L3,20.2 C2.7,20.6 2.8,21.1 3.1,21.5 L4.5,22.9 C4.7,23.1 4.9,23.2 5.2,23.2 C5.4,23.2 5.6,23.1 5.8,23 L7.4,21.8 C8.4,22.4 9.5,22.9 10.6,23.1 L10.9,25.1 C11,25.6 11.4,25.9 11.9,25.9 L13.9,25.9 C14.4,25.9 14.8,25.5 14.9,25.1 L15.2,23.1 C16.4,22.8 17.5,22.4 18.4,21.8 L20,23 C20.2,23.1 20.4,23.2 20.6,23.2 C20.9,23.2 21.1,23.1 21.3,22.9 L22.7,21.5 C23.1,21.1 23.1,20.6 22.8,20.2 L21.6,18.6 C22.2,17.6 22.7,16.5 22.9,15.4 L24.9,15.1 C25.4,15 25.7,14.6 25.7,14.1 L25.7,12.1 C26,11.5 25.6,11.1 25.2,11 Z M25,14 L22.3,14.5 C22.1,16 21.5,17.4 20.6,18.6 L22.2,20.8 L20.8,22.2 L18.6,20.6 C17.4,21.5 16,22.1 14.5,22.3 L14,25 L12,25 L11.6,22.3 C10.1,22.1 8.7,21.5 7.5,20.6 L5.3,22.2 L3.9,20.8 L5.5,18.6 C4.5,17.4 4,16 3.7,14.5 L1,14 L1,12 L3.7,11.6 C4,10 4.5,8.6 5.4,7.5 L3.8,5.2 L5.2,3.8 L7.4,5.4 C8.6,4.5 10,4 11.6,3.7 L12,1 L14,1 L14.5,3.7 C16,4 17.3,4.5 18.5,5.4 L20.7,3.8 L22.1,5.2 L20.5,7.4 C21.4,8.6 22,10 22.2,11.5 L25,12 L25,14 Z M13,10 C11.3,10 10,11.3 10,13 C10,14.7 11.3,16 13,16 C14.7,16 16,14.7 16,13 C16,11.3 14.7,10 13,10 Z M13,15 C11.9,15 11,14.1 11,13 C11,11.9 11.9,11 13,11 C14.1,11 15,11.9 15,13 C15,14.1 14.1,15 13,15 Z" id="Shape" fill="#4D5152"></path>
            </g>
            <g id="svgid15" transform="translate(18.000000, 11.000000)">
                <path d="M25.5,14.4 L25.5,11.6 L22.7,11.1 C22.4,9.8 21.9,8.5 21.2,7.4 L22.8,5.1 L20.8,3.1 L18.5,4.7 C17.4,3.9 16.1,3.4 14.9,3.2 L14.4,0.4 L11.6,0.4 L11.1,3.2 C9.8,3.5 8.5,4 7.4,4.7 L5.2,3.2 L3.2,5.2 L4.8,7.5 C4,8.6 3.5,9.8 3.3,11.2 L0.5,11.7 L0.5,14.5 L3.3,15 C3.6,16.3 4.1,17.6 4.8,18.6 L3.2,20.9 L5.2,22.9 L7.5,21.3 C8.6,22.1 9.8,22.6 11.2,22.8 L11.7,25.6 L14.5,25.6 L15,22.8 C16.3,22.5 17.5,22 18.6,21.3 L20.9,22.9 L22.9,20.9 L21.3,18.6 C22.1,17.5 22.6,16.3 22.8,15 L25.5,14.4 Z M13,15.5 C11.6,15.5 10.5,14.4 10.5,13 C10.5,11.6 11.6,10.5 13,10.5 C14.4,10.5 15.5,11.6 15.5,13 C15.5,14.4 14.4,15.5 13,15.5 Z" id="Shape" fill="#AAAAAA"></path>
                <path d="M13,8 C10.2,8 8,10.2 8,13 C8,15.8 10.2,18 13,18 C15.8,18 18,15.8 18,13 C18,10.2 15.8,8 13,8 Z M13,15.5 C11.6,15.5 10.5,14.4 10.5,13 C10.5,11.6 11.6,10.5 13,10.5 C14.4,10.5 15.5,11.6 15.5,13 C15.5,14.4 14.4,15.5 13,15.5 Z" id="Shape" fill="#4D5152" opacity="0.4"></path>
                <path d="M25.2,11 L23.2,10.7 C22.9,9.5 22.5,8.4 21.9,7.5 L23,5.8 C23.3,5.4 23.2,4.9 22.9,4.5 L21.5,3.1 C21.3,2.9 21,2.8 20.8,2.8 C20.6,2.8 20.4,2.9 20.2,3 L18.6,4.2 C17.6,3.6 16.5,3.1 15.4,2.9 L15.1,0.9 C14.9,0.3 14.5,1.77635684e-15 14,1.77635684e-15 L12,1.77635684e-15 C11.5,1.77635684e-15 11.1,0.3 11,0.8 L10.7,2.8 C9.5,3.1 8.4,3.5 7.5,4.1 L5.8,3 C5.6,2.9 5.4,2.8 5.2,2.8 C5,2.8 4.7,2.9 4.5,3.1 L3.1,4.5 C2.8,4.9 2.7,5.4 3,5.8 L4.2,7.4 C3.6,8.4 3.1,9.5 2.9,10.6 L0.9,10.9 C0.3,11.1 0,11.5 0,12 L0,14 C0,14.5 0.3,14.9 0.8,15 L2.8,15.3 C3.1,16.5 3.5,17.6 4.1,18.5 L3,20.2 C2.7,20.6 2.8,21.1 3.1,21.5 L4.5,22.9 C4.7,23.1 4.9,23.2 5.2,23.2 C5.4,23.2 5.6,23.1 5.8,23 L7.4,21.8 C8.4,22.4 9.5,22.9 10.6,23.1 L10.9,25.1 C11,25.6 11.4,25.9 11.9,25.9 L13.9,25.9 C14.4,25.9 14.8,25.5 14.9,25.1 L15.2,23.1 C16.4,22.8 17.5,22.4 18.4,21.8 L20,23 C20.2,23.1 20.4,23.2 20.6,23.2 C20.9,23.2 21.1,23.1 21.3,22.9 L22.7,21.5 C23.1,21.1 23.1,20.6 22.8,20.2 L21.6,18.6 C22.2,17.6 22.7,16.5 22.9,15.4 L24.9,15.1 C25.4,15 25.7,14.6 25.7,14.1 L25.7,12.1 C26,11.5 25.6,11.1 25.2,11 Z M25,14 L22.3,14.5 C22.1,16 21.5,17.4 20.6,18.6 L22.2,20.8 L20.8,22.2 L18.6,20.6 C17.4,21.5 16,22.1 14.5,22.3 L14,25 L12,25 L11.6,22.3 C10.1,22.1 8.7,21.5 7.5,20.6 L5.3,22.2 L3.9,20.8 L5.5,18.6 C4.5,17.4 4,16 3.7,14.5 L1,14 L1,12 L3.7,11.6 C4,10 4.5,8.6 5.4,7.5 L3.8,5.2 L5.2,3.8 L7.4,5.4 C8.6,4.5 10,4 11.6,3.7 L12,1 L14,1 L14.5,3.7 C16,4 17.3,4.5 18.5,5.4 L20.7,3.8 L22.1,5.2 L20.5,7.4 C21.4,8.6 22,10 22.2,11.5 L25,12 L25,14 Z M13,10 C11.3,10 10,11.3 10,13 C10,14.7 11.3,16 13,16 C14.7,16 16,14.7 16,13 C16,11.3 14.7,10 13,10 Z M13,15 C11.9,15 11,14.1 11,13 C11,11.9 11.9,11 13,11 C14.1,11 15,11.9 15,13 C15,14.1 14.1,15 13,15 Z" id="Shape" fill="#4D5152"></path>
            </g>
        </g>
    </g>
</svg>