<?xml version="1.0" encoding="UTF-8"?>
<svg width="290px" height="87px" viewBox="0 0 290 87" version="1.1" xmlns="http://www.w3.org/2000/svg" xmlns:xlink="http://www.w3.org/1999/xlink">
    <!-- Generator: Sketch 49.3 (51167) - http://www.bohemiancoding.com/sketch -->
    <title>logo</title>
    <desc>Created with Sketch.</desc>
    <defs></defs>
    <g id="Page-1" stroke="none" stroke-width="1" fill="none" fill-rule="evenodd">
        <g id="logo" transform="translate(-1.000000, 0.000000)" fill="#2D4BDD" fill-rule="nonzero">
            <g id="SvgjsG1087" transform="translate(0.023337, 0.000000)">
                <path d="M35.9808934,86.8021595 L35.7131848,86.7333806 C35.2031627,86.5989972 23.0906675,83.3166559 13.2182485,71.182998 L12.5526802,70.365058 L70.9766612,22.546785 L70.9766612,32.882668 C70.9766612,77.1445423 36.5956711,86.6434389 36.2486021,86.7344387 L35.9808934,86.8021595 Z M15.5355687,70.6571038 C24.0514559,80.6575574 34.2053394,84.0700495 35.9798353,84.6075832 C39.1288513,83.6404459 68.8603871,73.4124928 68.8603871,32.8816099 L68.8603871,27.0131816 L15.5355687,70.6571038 Z M11.0585907,68.3556557 L10.4110108,67.3842858 C8.92115376,65.1495003 7.5868429,62.7496454 6.44511298,60.2535 L6.10650912,59.5117459 L66.907066,9.75708206 L67.5641691,10.2184298 C69.5196065,11.5908336 70.5840924,12.5484477 70.6285341,12.5886569 L70.9766612,12.9039817 L70.9766612,19.3184088 L11.0585907,68.3556557 Z M8.71481703,60.1106515 C9.55921042,61.881973 10.505185,63.5972132 11.5358105,65.2299187 L68.8603871,18.3152948 L68.8603871,13.8594795 C68.5016786,13.5589686 67.872087,13.0510628 66.9991239,12.4161806 L8.71481703,60.1106515 Z M5.12138349,57.088612 L4.61876838,55.6696502 C3.66856127,52.9840982 2.89506306,50.1366514 2.32049463,47.2034954 L2.19880886,46.5823689 L54.8305475,3.50243375 L55.406174,3.72675881 C58.1573305,4.80182609 60.8386498,6.08852079 63.3750044,7.55298251 L64.7008502,8.31907376 L5.12138349,57.088612 Z M4.52141976,47.4161809 C4.95525597,49.5134086 5.49384774,51.5630201 6.12873,53.530097 L60.9740914,8.63651489 C59.1138864,7.63022652 57.1827862,6.7223449 55.2104187,5.92662581 L4.52141976,47.4161809 Z M1.71841463,43.7433871 L1.49620584,41.8196939 C1.14596246,38.7965962 0.976660529,35.8719053 0.976660529,32.8816099 L0.976660529,12.9008073 L1.3269039,12.5854825 C1.89723979,12.072286 15.5429756,0 35.9808934,0 C40.7001848,0 45.4596854,0.662393815 50.1281863,1.96919311 L52.0889143,2.51836626 L1.71841463,43.7433871 Z M3.0929347,13.8615958 L3.0929347,32.8816099 C3.0929347,35.1460233 3.19345772,37.3712856 3.39873632,39.6346408 L47.5600876,3.48973611 C43.7222243,2.57868008 39.836745,2.11627417 35.9808934,2.11627417 C18.1322371,2.11627417 5.33618532,12.0045652 3.0929347,13.8615958 Z" id="Shape"></path>
            </g>
            <g id="SvgjsG1088" transform="translate(91.000001, 29.000002)">
                <path d="M13.9469487,0 L14.6642204,0 C19.0475471,0 22.7534506,1.9127244 25.8616278,5.73817319 L25.7420825,5.81787003 L21.75724,5.81787003 C19.4858798,3.90514564 17.1746711,2.94878344 14.7439172,2.94878344 L13.8672519,2.94878344 C10.3605905,2.94878344 7.41180703,4.66226571 4.90135626,8.12907868 C3.82544879,10.0816515 3.26757084,12.0342243 3.26757084,13.9469487 C3.26757084,17.8122459 5.02090154,20.9204231 8.52756293,23.3113286 C10.320742,24.387236 12.1537696,24.945114 14.1063424,24.945114 L14.5048267,24.945114 C17.0949743,24.945114 19.4858798,23.9887518 21.75724,22.0760274 L25.7420825,22.0760274 C25.8616278,22.0760274 25.8616278,22.1557242 25.8616278,22.2354211 C22.6737538,26.0210215 18.9280018,27.8938974 14.5845235,27.8938974 L14.0266456,27.8938974 C9.04559245,27.8938974 4.98105311,25.5428404 1.79317912,20.8407262 C0.597726373,18.5295176 6.63609582e-16,16.3777026 6.63609582e-16,14.345433 L6.63609582e-16,13.5484645 C6.63609582e-16,9.08544088 2.15181494,5.29984051 6.45544483,2.23151179 C8.92604718,0.717271648 11.3966495,-7.07850221e-15 13.9469487,-7.07850221e-15 Z M27.8142006,27.8938974 L27.8142006,2.69251471e-17 L30.6434387,2.69251471e-17 L30.6434387,27.8938974 L27.8142006,27.8938974 Z M42.5182694,7.96968498 L42.9964505,7.96968498 C46.5031119,7.96968498 49.3721984,9.6034704 51.5638618,12.7913444 C52.5600724,14.3852814 53.0382535,16.0987637 53.0382535,18.0114881 C53.0382535,21.5978463 51.3247713,24.4669329 47.8978067,26.6187478 C46.3437182,27.4555648 44.829478,27.8938974 43.4347831,27.8938974 L42.0400883,27.8938974 C39.5296375,27.8938974 37.0988836,26.6984447 34.7478265,24.2278423 C33.2734348,22.2752695 32.5561631,20.2429998 32.5561631,18.1310333 L32.5561631,17.5731554 C32.5561631,14.2258877 34.2696454,11.4364979 37.7763068,9.16513773 C39.4100922,8.36816923 41.0040292,7.96968498 42.5182694,7.96968498 Z M35.3854013,17.6528522 L35.3854013,18.290427 C35.3854013,20.6813325 36.5808541,22.6737538 38.9717595,24.3473876 C40.2469091,25.0248108 41.4025135,25.3435982 42.4385725,25.3435982 L43.1558442,25.3435982 C45.6662949,25.3435982 47.7782615,23.9887518 49.4518953,21.3189073 C49.9699248,20.1234546 50.2090154,19.0475471 50.2090154,18.0114881 L50.2090154,17.9317912 C50.2090154,14.8236141 48.6549268,12.5124054 45.5069012,10.9981653 C44.550539,10.6793779 43.6340253,10.5199842 42.7972083,10.5199842 C39.5694859,10.5199842 37.2184289,12.193618 35.7440371,15.5408857 C35.5049466,16.3777026 35.3854013,17.0949743 35.3854013,17.6528522 Z M55.0705232,7.96968498 L57.6208224,7.96968498 C57.7005193,7.96968498 57.7802161,8.0095334 57.7802161,8.08923025 L57.7802161,18.1310333 C57.7802161,20.9204231 59.2147594,23.1120864 62.083846,24.7060234 C63.119905,25.1045077 64.0364188,25.3435982 64.8333873,25.3435982 L65.3912653,25.3435982 C68.180655,25.3435982 70.4121668,23.8692065 72.0459522,20.9204231 C72.404588,19.8445156 72.6038302,18.8084566 72.6038302,17.8122459 L72.6038302,8.08923025 C72.6038302,8.0095334 72.683527,7.96968498 72.7632239,7.96968498 L75.3135231,7.96968498 C75.3932199,7.96968498 75.4330683,8.0095334 75.4330683,8.08923025 L75.4330683,17.8122459 C75.4330683,21.8369368 73.5601924,24.8654171 69.7347436,26.8976868 C68.3798971,27.57511 67.0648991,27.8938974 65.8295979,27.8938974 L64.4349031,27.8938974 C61.9244523,27.8938974 59.4936984,26.6984447 57.1426413,24.2278423 C55.6682496,22.2752695 54.9509779,20.2429998 54.9509779,18.1310333 L54.9509779,8.08923025 C54.9509779,8.0095334 54.9908264,7.96968498 55.0705232,7.96968498 Z M97.7481863,27.7743522 C97.7481863,27.854049 97.6684894,27.8938974 97.5887926,27.8938974 L95.0783418,27.8938974 C94.9587965,27.8938974 94.9189481,27.854049 94.9189481,27.7743522 L94.9189481,24.8654171 C92.7671332,26.8578384 90.3363792,27.8938974 87.6266863,27.8938974 C85.6741135,27.8938974 83.8809344,27.4157163 82.3268458,26.4992026 C78.9795781,24.3473876 77.3457927,21.5579979 77.3457927,18.0513365 C77.3457927,16.2581574 77.744277,14.6642204 78.5412455,13.2695255 C80.6930604,9.7628641 83.6816923,7.96968498 87.5469895,7.96968498 C90.3363792,7.96968498 92.8069816,9.00574403 94.9189481,11.0380137 L94.9189481,1.4345433 C94.9189481,1.35484645 94.9587965,1.31499802 95.0783418,1.31499802 L97.5887926,1.31499802 C97.6684894,1.31499802 97.7481863,1.35484645 97.7481863,1.4345433 L97.7481863,27.7743522 Z M87.6266863,10.5199842 C86.8695663,10.5199842 85.9530525,10.7192263 84.877145,11.0380137 C81.7291195,12.5522538 80.1750309,14.8634625 80.1750309,17.9317912 L80.1750309,17.9716396 C80.1750309,19.0475471 80.374273,20.0836061 80.8524541,21.0798168 C82.4065427,23.9489034 84.6779029,25.3834467 87.6266863,25.3834467 C88.343958,25.3834467 89.3401686,25.1443561 90.5754698,24.7060234 C93.4844048,23.072238 94.9189481,20.9204231 94.9189481,18.2505786 L94.9189481,17.6130038 C94.9189481,16.8558837 94.6798576,15.93937 94.2813733,14.8236141 C92.6475879,11.9545275 90.4559245,10.5199842 87.6266863,10.5199842 Z M138.074792,27.7345037 C138.074792,27.854049 138.034944,27.8938974 137.915399,27.8938974 L135.285403,27.8938974 C135.205706,27.8938974 135.126009,27.854049 135.126009,27.7345037 L135.126009,6.21635428 C134.249343,7.77044285 130.822379,14.345433 124.884964,26.0210215 C124.247389,27.2164742 123.928601,27.8142006 123.888753,27.8142006 C123.490269,27.2164742 119.704668,19.9242124 112.5718,5.89756688 L112.492103,5.89756688 L112.492103,27.7345037 C112.492103,27.854049 112.452255,27.8938974 112.33271,27.8938974 L109.702714,27.8938974 C109.583168,27.8938974 109.54332,27.854049 109.54332,27.7345037 L109.54332,0.1593937 C109.54332,0.0398484249 109.623017,3.57963883e-15 109.702714,3.57963883e-15 L112.731194,3.57963883e-15 C112.890588,0.0796968498 114.08604,2.43075392 116.437098,6.97347436 C121.338454,16.5370963 123.809056,21.3587557 123.809056,21.4384526 C124.048147,21.1196652 127.75405,13.9867971 134.966615,3.57963883e-15 L138.074792,3.57963883e-15 L138.074792,27.7345037 Z M139.987517,27.8938974 L139.987517,7.96968498 L142.816755,7.96968498 L142.816755,27.8938974 L139.987517,27.8938974 Z M142.816755,4.22393304 L142.816755,7.09301963 L139.987517,7.09301963 L139.987517,4.22393304 L142.816755,4.22393304 Z M151.902196,7.96968498 L165.052176,7.96968498 C165.131873,7.96968498 165.21157,8.0095334 165.21157,8.08923025 L165.21157,10.4402873 C165.21157,10.5199842 165.131873,10.5598326 165.052176,10.5598326 L151.78265,10.5598326 C150.109017,10.5598326 148.913564,11.3169527 148.156444,12.8311928 C148.076747,13.1499802 148.036898,13.4289192 148.036898,13.6680097 C148.475231,15.6205826 149.790229,16.5769448 151.981893,16.5769448 L157.680217,16.5769448 C161.186879,16.5769448 163.617633,17.9317912 164.932631,20.6414841 C165.131873,21.199362 165.21157,21.6775431 165.21157,22.0760274 L165.21157,22.2752695 C165.21157,24.8654171 163.418391,26.6585963 159.911729,27.6946553 C159.234306,27.854049 158.477186,27.8938974 157.60052,27.8938974 L144.849024,27.8938974 C144.769328,27.8938974 144.729479,27.854049 144.729479,27.7743522 L144.729479,25.4232951 C144.729479,25.3435982 144.769328,25.3037498 144.849024,25.3037498 L157.241885,25.3037498 C159.792184,25.3037498 161.346272,24.4270845 161.864302,22.7534506 L161.90415,22.3549664 L161.90415,22.1158758 C161.90415,20.8805746 160.987637,19.9640609 159.114761,19.3264861 C158.517034,19.2467892 157.999005,19.2069408 157.480975,19.2069408 L151.583408,19.2069408 C149.072958,19.2069408 147.040688,18.1708818 145.486599,16.1386121 C144.96857,15.381492 144.729479,14.5048267 144.729479,13.5883129 C144.729479,11.1177105 146.403113,9.32453143 149.670684,8.24862395 C150.427804,8.04938183 151.145076,7.96968498 151.902196,7.96968498 Z M177.0864,7.96968498 L177.564581,7.96968498 C181.350182,7.96968498 184.378662,9.80271252 186.570325,13.4687676 C187.287597,14.9033109 187.606384,16.4175511 187.606384,18.0513365 C187.606384,18.8881534 187.566536,19.3663345 187.407142,19.3663345 L170.112926,19.3663345 L170.112926,19.4061829 C170.232471,20.5617872 170.909894,21.8767853 172.145196,23.3113286 C173.778981,24.666175 175.372918,25.3435982 177.006703,25.3435982 L177.723975,25.3435982 C179.517154,25.3435982 181.230636,24.5466297 182.90427,22.9526927 L186.052296,22.9526927 C186.131993,22.9526927 186.21169,22.9925412 186.21169,23.072238 C183.860632,26.260112 181.111091,27.8938974 178.002914,27.8938974 L176.608219,27.8938974 C174.097768,27.8938974 171.667014,26.6984447 169.315957,24.2278423 C167.841566,22.2752695 167.124294,20.2429998 167.124294,18.1310333 L167.124294,17.5731554 C167.124294,14.2258877 168.837776,11.4364979 172.344438,9.16513773 C173.978223,8.36816923 175.57216,7.96968498 177.0864,7.96968498 Z M170.112926,16.4972479 L184.657601,16.4972479 C184.577904,15.5010373 183.900481,14.2657361 182.66518,12.7116475 C181.071243,11.2771042 179.278064,10.5199842 177.365339,10.5199842 C174.615798,10.5199842 172.463983,11.7951338 170.870046,14.345433 C170.352016,15.381492 170.112926,16.0987637 170.112926,16.4972479 Z M189.678503,7.96968498 L192.228802,7.96968498 C192.308499,7.96968498 192.388195,8.0095334 192.388195,8.08923025 L192.388195,10.9981653 C194.54001,8.9658956 196.891067,7.96968498 199.521063,7.96968498 L199.640609,7.96968498 C199.760154,7.96968498 199.800002,8.0095334 199.800002,8.08923025 L199.800002,10.3605905 C199.800002,10.4801357 199.162428,10.599681 197.887278,10.7192263 C195.974554,11.3169527 194.54001,12.3928601 193.503951,13.9071003 C192.746831,15.2619467 192.388195,16.5370963 192.388195,17.6528522 L192.388195,27.7743522 C192.388195,27.854049 192.308499,27.8938974 192.228802,27.8938974 L189.678503,27.8938974 C189.598806,27.8938974 189.558957,27.854049 189.558957,27.7743522 L189.558957,8.08923025 C189.558957,8.0095334 189.598806,7.96968498 189.678503,7.96968498 Z" id="Shape"></path>
            </g>
        </g>
    </g>
</svg>