<?xml version="1.0" encoding="UTF-8"?>
<svg width="285px" height="42px" viewBox="0 0 285 42" version="1.1" xmlns="http://www.w3.org/2000/svg" xmlns:xlink="http://www.w3.org/1999/xlink">
    <!-- Generator: Sketch 49.3 (51167) - http://www.bohemiancoding.com/sketch -->
    <title>logo2-white</title>
    <desc>Created with Sketch.</desc>
    <defs></defs>
    <g id="Page-1" stroke="none" stroke-width="1" fill="none" fill-rule="evenodd">
        <g id="logo2-white" fill="#FFFFFF" fill-rule="nonzero">
            <g id="SvgjsG1168" transform="translate(13.000000, 13.000000)">
                <g id="Group" transform="translate(0.000000, 0.397835)">
                    <path d="M27.9042038,0.257719785 C27.6278454,0.266452454 27.3824324,0.436801882 27.2774289,0.692606718 L18.8241957,21.2885013 L12.2366672,4.42950305 C12.1312539,4.16034971 11.8715643,3.98332603 11.5824824,3.98363791 C11.3293317,3.98419929 11.0961052,4.1210527 10.9721536,4.3418021 L7.03425559,11.3660681 L0.711690719,11.3660681 C-0.237227329,11.3523454 -0.237227329,12.7828814 0.711690719,12.7694705 L7.44540526,12.7694705 C7.69921094,12.7695329 7.93328951,12.6326171 8.05756101,12.4113063 L11.4710161,6.32442992 L18.1078822,23.3131707 C18.223431,23.9900149 19.1419619,24.1152664 19.4345238,23.4940617 C22.0309435,17.1754764 24.6291709,10.8394882 27.224436,4.51539509 L27.224436,23.1761301 C27.2255587,23.826215 28.0336001,24.1254961 28.457885,23.6329735 L37.7864099,12.7694705 L42.5283336,12.7694705 L38.296235,17.0947616 C37.6408332,17.7635593 38.6440372,18.7466708 39.2994391,18.077873 L44.6315914,12.6269408 C45.0016731,12.3478697 45.0043971,11.7930957 44.6370805,11.5104067 L44.6334626,11.5104067 L39.3012667,5.99190235 C39.1716159,5.85392617 38.9917116,5.77420938 38.8024055,5.77084106 C38.1739913,5.76148463 37.8507067,6.51898132 38.2925797,6.96590686 L42.544779,11.3679394 L37.4647994,11.3679394 C37.2597033,11.3676899 37.0647521,11.4571374 36.9312183,11.6128284 L28.6278265,21.2830122 L28.6278265,0.959452142 C28.6269532,0.563924597 28.2995392,0.247240582 27.9042038,0.259591071 L27.9042038,0.257719785 Z" id="Shape"></path>
                </g>
            </g>
            <g id="SvgjsG1169" transform="translate(85.000000, 10.000000)">
                <path d="M19.5497949,22.0730547 C19.8935276,22.0730547 20.1513271,22.2878876 20.1513271,22.6745868 C19.9794608,28.6899083 16.8429002,31.4397696 11.515044,31.4397696 L8.85111595,31.4397696 C3.35139342,31.4397696 0.214832911,28.518042 0.214832911,22.5027205 L0.214832911,9.87054531 C0.214832911,3.8552238 3.35139342,0.933496202 8.85111595,0.933496202 L11.515044,0.933496202 C16.8429002,0.933496202 19.9794608,3.68335747 20.1513271,9.69867898 C20.1513271,10.0853782 19.8935276,10.3002111 19.5497949,10.3002111 L18.6045301,10.3002111 C18.2178309,10.3002111 17.9600314,10.0853782 17.9600314,9.69867898 C17.7881651,4.92938835 15.940602,2.99589215 11.515044,2.99589215 L8.85111595,2.99589215 C4.29665823,2.99589215 2.40612861,5.10125468 2.40612861,9.87054531 L2.40612861,22.5027205 C2.40612861,27.2720111 4.29665823,29.3773737 8.85111595,29.3773737 L11.515044,29.3773737 C15.940602,29.3773737 17.7881651,27.4438775 17.9600314,22.6745868 C17.9600314,22.2878876 18.2178309,22.0730547 18.6045301,22.0730547 L19.5497949,22.0730547 Z M25.092484,1.79282785 C25.092484,1.36316202 25.307317,1.14832911 25.7369828,1.14832911 L26.5533478,1.14832911 C26.9830137,1.14832911 27.1978466,1.36316202 27.1978466,1.79282785 L27.1978466,30.580438 C27.1978466,31.0101038 26.9830137,31.2249367 26.5533478,31.2249367 L25.7369828,31.2249367 C25.307317,31.2249367 25.092484,31.0101038 25.092484,30.580438 L25.092484,1.79282785 Z M41.2049524,9.56977924 C45.7594101,9.56977924 48.8959706,12.2766739 48.8959706,17.3896972 L48.8959706,23.5339185 C48.8959706,28.5610086 45.7594101,31.4397696 41.2049524,31.4397696 L39.3573894,31.4397696 C34.8458982,31.4397696 31.7093377,28.5610086 31.7093377,23.5339185 L31.7093377,17.3896972 C31.7093377,12.2766739 34.8458982,9.56977924 39.3573894,9.56977924 L41.2049524,9.56977924 Z M46.7476415,23.7057848 L46.7476415,17.518597 C46.7476415,13.5227048 44.8141453,11.5892086 41.2049524,11.5892086 L39.3573894,11.5892086 C35.791163,11.5892086 33.8147002,13.5227048 33.8147002,17.518597 L33.8147002,23.7057848 C33.8147002,27.4009109 35.791163,29.3773737 39.3573894,29.3773737 L41.2049524,29.3773737 C44.8141453,29.3773737 46.7476415,27.4009109 46.7476415,23.7057848 Z M60.2391483,31.396803 C55.1690916,31.396803 53.4074618,28.7758415 53.4074618,23.791718 L53.4074618,10.3861443 C53.4074618,9.95647848 53.6222947,9.74164557 54.0519605,9.74164557 L54.8683256,9.74164557 C55.2979914,9.74164557 55.5128243,9.95647848 55.5128243,10.3861443 L55.5128243,23.6628182 C55.5128243,27.4009109 56.3721559,29.3344071 60.2391483,29.3344071 L60.9266137,29.3344071 C64.49284,29.3344071 66.5552359,27.1431114 67.2427012,25.9830137 L67.2427012,10.3861443 C67.2427012,9.95647848 67.4575342,9.74164557 67.8872,9.74164557 L68.703565,9.74164557 C69.1332309,9.74164557 69.3480638,9.95647848 69.3480638,10.3861443 L69.3480638,30.580438 C69.3480638,31.0101038 69.1332309,31.2249367 68.703565,31.2249367 L67.8872,31.2249367 C67.4575342,31.2249367 67.2427012,31.0101038 67.2427012,30.580438 L67.2427012,27.8735433 C65.5670045,30.2796719 63.1608759,31.396803 60.582881,31.396803 L60.2391483,31.396803 Z M90.3157559,1.14832911 C90.7454217,1.14832911 90.9602547,1.36316202 90.9602547,1.79282785 L90.9602547,30.580438 C90.9602547,31.0101038 90.7454217,31.2249367 90.3157559,31.2249367 L89.4993909,31.2249367 C89.069725,31.2249367 88.8548921,31.0101038 88.8548921,30.580438 L88.8548921,27.9594764 C87.9525939,30.1078056 86.190964,31.4397696 83.0114369,31.4397696 L81.46464,31.4397696 C76.9961154,31.4397696 73.8595549,28.5610086 73.8595549,23.5339185 L73.8595549,17.3896972 C73.8595549,12.2766739 76.9961154,9.56977924 81.46464,9.56977924 L83.0114369,9.56977924 C86.190964,9.56977924 87.9525939,10.6869104 88.8548921,12.7922729 L88.8548921,1.79282785 C88.8548921,1.36316202 89.069725,1.14832911 89.4993909,1.14832911 L90.3157559,1.14832911 Z M83.312203,29.3773737 C86.8784293,29.3773737 88.8548921,27.4009109 88.8548921,23.7057848 L88.8548921,17.518597 C88.8548921,13.5227048 86.8784293,11.5892086 83.312203,11.5892086 L81.5076066,11.5892086 C77.9413802,11.5892086 75.9649174,13.5227048 75.9649174,17.518597 L75.9649174,23.7057848 C75.9649174,27.4009109 77.9413802,29.3773737 81.5076066,29.3773737 L83.312203,29.3773737 Z M133.411238,1.14832911 C133.840904,1.14832911 134.055737,1.36316202 134.055737,1.79282785 L134.055737,30.580438 C134.055737,31.0101038 133.840904,31.2249367 133.411238,31.2249367 L132.50894,31.2249367 C132.079274,31.2249367 131.864441,31.0101038 131.864441,30.580438 L131.864441,3.1247919 L122.970358,30.580438 C122.841459,31.0101038 122.540693,31.2249367 122.153993,31.2249367 L121.122795,31.2249367 C120.736096,31.2249367 120.43533,31.0101038 120.30643,30.580438 L111.412348,3.1247919 L111.412348,30.580438 C111.412348,31.0101038 111.197515,31.2249367 110.767849,31.2249367 L109.865551,31.2249367 C109.435885,31.2249367 109.221052,31.0101038 109.221052,30.580438 L109.221052,1.79282785 C109.221052,1.36316202 109.435885,1.14832911 109.865551,1.14832911 L112.314646,1.14832911 C112.744312,1.14832911 113.045078,1.36316202 113.173978,1.79282785 L121.638394,27.9594764 L130.145778,1.79282785 C130.274677,1.36316202 130.575444,1.14832911 131.005109,1.14832911 L133.411238,1.14832911 Z M139.942158,1.79282785 C139.942158,1.36316202 140.156991,1.14832911 140.586657,1.14832911 L141.274122,1.14832911 C141.703788,1.14832911 141.918621,1.36316202 141.918621,1.79282785 L141.918621,2.73809266 C141.918621,3.16775848 141.703788,3.38259139 141.274122,3.38259139 L140.586657,3.38259139 C140.156991,3.38259139 139.942158,3.16775848 139.942158,2.73809266 L139.942158,1.79282785 Z M139.856225,10.3861443 C139.856225,9.95647848 140.071058,9.74164557 140.500724,9.74164557 L141.317089,9.74164557 C141.746755,9.74164557 141.961588,9.95647848 141.961588,10.3861443 L141.961588,30.580438 C141.961588,31.0101038 141.746755,31.2249367 141.317089,31.2249367 L140.500724,31.2249367 C140.071058,31.2249367 139.856225,31.0101038 139.856225,30.580438 L139.856225,10.3861443 Z M154.808596,19.36616 C159.234154,19.9247256 162.886313,20.4403246 162.886313,25.2525818 C162.886313,29.7211063 159.491953,31.4397696 155.581994,31.4397696 L153.863331,31.4397696 C149.910406,31.4397696 147.375377,29.5062734 146.730878,26.1119134 C146.644945,25.7252142 146.859778,25.4674147 147.289444,25.4674147 L148.363609,25.4674147 C148.707341,25.4674147 148.922174,25.6822476 148.965141,26.0689468 C149.523706,28.3891423 151.027537,29.3773737 153.863331,29.3773737 L155.581994,29.3773737 C158.503722,29.3773737 160.780951,28.4750754 160.780951,25.2525818 C160.780951,22.0300881 157.988123,21.6863554 154.808596,21.2996562 C150.168205,20.7840572 147.074611,20.0106587 147.074611,15.3273013 C147.074611,11.2454759 149.824472,9.61274582 154.078164,9.61274582 L155.324195,9.61274582 C159.320087,9.61274582 162.026982,11.4173423 162.198848,15.3273013 C162.198848,15.7569671 162.069948,16.0147666 161.597316,16.0147666 L160.652051,16.0147666 C160.265352,16.0147666 160.007552,15.7569671 160.007552,15.3273013 C159.792719,12.7493063 158.202956,11.546242 155.238262,11.546242 L154.164097,11.546242 C151.070503,11.546242 149.179974,12.4485402 149.179974,15.3702678 C149.179974,18.4638618 151.414236,18.9794608 154.808596,19.36616 Z M175.690355,9.56977924 C179.385481,9.56977924 183.16654,12.3196405 183.16654,17.3467306 L183.16654,20.0536253 C183.16654,20.8699904 182.607975,21.3855894 181.748643,21.3855894 L168.729769,21.3855894 L168.729769,23.9206177 C168.729769,27.4009109 170.706231,29.3773737 174.272458,29.3773737 L175.690355,29.3773737 C178.698016,29.3773737 179.514381,28.1313428 180.846345,26.5415792 C181.147111,26.1978466 181.318977,26.1119134 181.748643,26.4126795 L182.307209,26.7993787 C182.736874,27.1001448 182.693908,27.3579443 182.436108,27.701677 C180.889311,29.5922066 179.342514,31.4397696 175.690355,31.4397696 L174.272458,31.4397696 C169.760967,31.4397696 166.538473,28.6039752 166.538473,23.791718 L166.538473,17.3896972 C166.538473,12.2766739 169.760967,9.56977924 174.272458,9.56977924 L175.690355,9.56977924 Z M180.975245,19.4520932 L180.975245,17.518597 C180.975245,13.5227048 178.698016,11.5892086 175.690355,11.5892086 L174.272458,11.5892086 C170.706231,11.5892086 168.729769,13.5227048 168.729769,17.4756304 L168.729769,19.4520932 L180.975245,19.4520932 Z M199.622741,11.6321752 C199.450875,12.0188744 199.150109,12.061841 198.806376,11.9329413 C198.204844,11.7181084 197.517379,11.5892086 196.61508,11.5892086 L196.099481,11.5892086 C192.533255,11.5892086 190.470859,13.8234709 189.783394,14.9835686 L189.783394,30.580438 C189.783394,31.0101038 189.568561,31.2249367 189.138895,31.2249367 L188.32253,31.2249367 C187.892864,31.2249367 187.678031,31.0101038 187.678031,30.580438 L187.678031,10.3861443 C187.678031,9.95647848 187.892864,9.74164557 188.32253,9.74164557 L189.138895,9.74164557 C189.568561,9.74164557 189.783394,9.95647848 189.783394,10.3861443 L189.783394,13.093039 C191.459091,10.6439438 193.908186,9.56977924 196.786947,9.56977924 C197.732212,9.56977924 198.720443,9.69867898 199.579775,9.9135119 C199.966474,10.0853782 200.095374,10.3431777 199.966474,10.729877 L199.622741,11.6321752 Z" id="Shape"></path>
            </g>
            <g id="noun_Cloud_717599">
                <path d="M61.4897283,18.437568 L61.1393395,18.437568 L61.0237112,18.1038722 C59.9199866,13.319729 55.7959105,9.98628418 50.9815686,9.98628418 C49.9584333,9.98628418 48.9458097,10.1443506 47.9647211,10.4569708 L47.7264568,10.5342477 L47.593309,10.3059296 C43.9142267,3.94814753 37.155227,0 29.9512336,0 C29.2364404,0 28.4936162,0.0491762148 27.6176442,0.158066405 C18.6757224,1.22589278 11.3420851,8.29672995 9.78285495,17.3486661 L9.73730441,17.5910345 L9.51655947,17.6402108 C3.91384276,18.8555658 0,23.8048005 0,29.6778456 C0,29.8569875 0.0140155515,30.0326169 0.0245272151,30.1801455 L0.0350388788,30.3979259 C0.0385427666,30.4295392 0.0385427666,30.4576399 0.0455505424,30.4892532 C0.455505424,36.9489002 5.71133724,42 12.0393587,42 L61.4897283,42 C67.8352693,42 73,36.7170695 73,30.2222966 C73,23.724011 67.8352693,18.437568 61.4897283,18.437568 Z M61.4897283,39.8854228 L12.0393587,39.8854228 C6.79754248,39.8854228 2.44921763,35.6668061 2.14087549,30.2820105 C2.14087549,30.2574224 2.1373716,30.2293217 2.13386772,30.2047336 L2.12685994,30.0431546 C2.11634828,29.9237267 2.10583661,29.8007862 2.10583661,29.6778456 C2.10583661,24.8094004 5.33642123,20.7102116 9.96155323,19.7056118 L10.876068,19.5089069 C11.2965345,19.4175797 11.6188922,19.0803713 11.6924738,18.6553483 L11.8536527,17.7104625 C13.2552078,9.57179895 19.8355093,3.21752948 27.8664203,2.25859329 C28.6582989,2.16024086 29.3205337,2.11457724 29.9477297,2.11457724 C36.4018911,2.11457724 42.4636172,5.66228987 45.7677834,11.3702434 L46.3249016,12.3291796 C46.5736776,12.7577151 47.0817414,12.9579326 47.5547662,12.8068914 L48.6024287,12.4731956 C49.3732841,12.2273145 50.1756744,12.1008614 50.9815686,12.1008614 C54.8288375,12.1008614 58.1189882,14.7844777 58.9844485,18.6307602 C58.9949602,18.6693987 59.0054718,18.7080371 59.0159835,18.7466756 L59.3979073,19.8426027 C59.5450706,20.2676257 59.9445138,20.5486326 60.3930114,20.5486326 L61.4932322,20.5486326 C66.6789863,20.5486326 70.8976673,24.8866773 70.8976673,30.2152714 C70.8941634,35.5473781 66.6754824,39.8854228 61.4897283,39.8854228 Z" id="Shape"></path>
            </g>
        </g>
    </g>
</svg>