<?xml version="1.0" encoding="UTF-8"?>
<svg width="24px" height="25px" viewBox="0 0 24 25" version="1.1" xmlns="http://www.w3.org/2000/svg" xmlns:xlink="http://www.w3.org/1999/xlink">
    <!-- Generator: Sketch 49.3 (51167) - http://www.bohemiancoding.com/sketch -->
    <title>savings</title>
    <desc>Created with Sketch.</desc>
    <defs></defs>
    <g id="Page-1" stroke="none" stroke-width="1" fill="none" fill-rule="evenodd">
        <g id="savings" fill-rule="nonzero">
            <g id="svgid6" transform="translate(12.000000, 12.500000) rotate(-180.000000) translate(-12.000000, -12.500000) ">
                <path d="M0.5,5.5 L0.5,23.5 C0.5,24.053 0.948,24.5 1.5,24.5 L22.5,24.5 C23.053,24.5 23.5,24.053 23.5,23.5 L23.5,5.5 L0.5,5.5 Z" id="MTBteHk2MjYxMDAwMDAwMDAwMHh6czQ2Mw" fill="#75EA9C"></path>
                <path d="M0.5,21.5 L0.5,23 C0.5,23.827 1.173,24.5 2,24.5 L22,24.5 C22.827,24.5 23.5,23.827 23.5,23 L23.5,21.5 L0.5,21.5 Z" id="Shape" fill="#4D5152" opacity="0.3"></path>
                <path d="M23,8.5 C21.62,8.5 20.5,7.378 20.5,6 L20.5,5.5 L3.5,5.5 L3.5,6 C3.5,7.378 2.378,8.5 1,8.5 L0.5,8.5 L0.5,15.5 L1,15.5 C2.378,15.5 3.5,16.62 3.5,18 L3.5,18.5 L20.5,18.5 L20.5,18 C20.5,16.62 21.62,15.5 23,15.5 L23.5,15.5 L23.5,8.5 L23,8.5 Z M12,16.5 C10.07,16.5 8.5,14.48 8.5,12 C8.5,9.52 10.07,7.5 12,7.5 C13.93,7.5 15.5,9.52 15.5,12 C15.5,14.48 13.93,16.5 12,16.5 Z" id="Shape" fill="#FFFFFF" opacity="0.4"></path>
                <path d="M23,5 L18,5 L18,2 L19.49,3.45 L20.18,2.74 L17.5,0.06 L14.82,2.74 L15.52,3.44 L17,2 L17,5 L6,5 L6,2 L7.49,3.45 L8.18,2.74 L5.5,0.06 L2.82,2.74 L3.52,3.44 L5,2 L5,5 L1,5 C0.45,5 0,5.45 0,6 L0,23 C0,25 2,25 2,25 L22,25 C24,25 24,23 24,23 L24,6 C24,5.45 23.55,5 23,5 Z M1,6 L3,6 C3,7.1 2.1,8 1,8 L1,6 Z M1,16 C2.1,16 3,16.9 3,18 L1,18 L1,16 Z M23,23 C22.99,23.46 22.8,24 22,24 L2.01,24 C1.55,23.99 1,23.81 1,23 L1,22 L23,22 L23,23 Z M23,19.99 C22.99,20.45 22.81,21 22,21 L2.01,21 C1.55,20.99 1,20.81 1,20 L1,19 L23,19 L23,19.99 Z M23,18 L21,18 C21,16.9 21.9,16 23,16 L23,18 Z M23,15 C21.34,15 20,16.34 20,18 L4,18 C4,16.34 2.66,15 1,15 L1,9 C2.66,9 4,7.66 4,6 L5,6 L5,8 L6,8 L6,6 L17,6 L17,8 L18,8 L18,6 L20,6 C20,7.66 21.34,9 23,9 L23,15 Z M23,8 C21.9,8 21,7.1 21,6 L23,6 L23,8 Z M12,7 C9.79,7 8,9.24 8,12 C8,14.76 9.79,17 12,17 C14.21,17 16,14.76 16,12 C16,9.24 14.21,7 12,7 Z M12,16 C10.34,16 9,14.21 9,12 C9,9.79 10.34,8 12,8 C13.66,8 15,9.79 15,12 C15,14.21 13.66,16 12,16 Z" id="Shape" fill="#4D5152"></path>
            </g>
        </g>
    </g>
</svg>